<?xml version="1.0" ?><svg id="Layer_1" style="enable-background:new 0 0 120 120;" version="1.1" viewBox="0 0 120 120" xml:space="preserve" xmlns="http://www.w3.org/2000/svg" xmlns:xlink="http://www.w3.org/1999/xlink"><style type="text/css">
	.st0{fill:#70C4FF;}
	.st1{fill:#85E57A;}
	.st2{fill:#E8E7E6;}
	.st3{fill:#BCA280;}
	.st4{fill:#CC864E;}
	.st5{opacity:8.000000e-02;}
	.st6{fill:#FFA42F;}
	.st7{fill:#9FCDFF;}
	.st8{fill:#C7E9FF;}
	.st9{fill:#4B92FF;}
	.st10{fill:#FFCD57;}
	.st11{fill:#FFFFFF;}
</style><g><circle class="st0" cx="57.1" cy="62.5" r="39.2"/><g><path class="st1" d="M57.1,23.3c-3.1,0-6,0.4-8.9,1c-0.9,2-1.4,4.1-1.4,6.2c0.1,4.4,3.8,9,8.1,8.4c2.4,4,7.3,5.9,12,6    c4.7,0.1,9.2-1.5,13.6-3c2,1.3,2.6,4,2.5,6.4c-0.1,2.4-0.8,4.8-0.7,7.2c0.1,2.4,1.2,5,3.5,5.8c1.7,0.6,3.6,0.1,5.5,0    c1.7-0.1,3.4,0.2,5,0.9C96.2,40.7,78.7,23.3,57.1,23.3z"/><path class="st1" d="M57.9,68.3c-1.4-1.8-1.6-4.4-1.5-6.7c0.1-2.3,0.3-4.8-0.6-6.9c-0.9-2.1-3.5-3.8-5.6-2.9c-0.4,2-3,2.5-5.1,2.5    c-2.8,0.1-5.7,0.1-8.5,0.2c-2,0-4.2,0.1-6,1c-1.9,0.8-3.4,2.7-3.3,4.8c0.1,1.7,1.4,3.1,3,3.8c3.4,1.5,4.7-0.4,5.6,3.5    c0.7,2.9,1,6,3.8,7.8c1.6,1,3.8,1.3,4.8,2.9c0.9,1.3,0.6,3.1,0.1,4.6c-0.5,1.5-1.2,3-1.2,4.5c0,1.6,1.1,3.3,2.6,3.4    c1.2,0,2.2-0.9,2.8-2c1.1-2,1-4.3,1.3-6.6c0.3-2.2,1.1-4.7,3.1-5.6c1.4-0.7,2.9-0.5,4.4-0.6c1.5-0.2,3.1-0.9,3.5-2.3    C61.7,71.5,59.2,70.1,57.9,68.3z"/></g><g><g><path class="st2" d="M88.6,58.7H78.2V43.9c0-1.2,1-2.3,2.3-2.3h5.9c1.2,0,2.3,1,2.3,2.3V58.7z M79.4,57.4h7.8V43.9     c0-0.5-0.5-1-1-1h-5.9c-0.5,0-1,0.5-1,1L79.4,57.4L79.4,57.4z"/></g><g><path class="st3" d="M76.6,96.2c-0.9,0-1.6,0.7-1.6,1.6v2.2c0,0.9,0.7,1.6,1.6,1.6c0.9,0,1.6-0.7,1.6-1.6v-2.2     C78.2,96.9,77.5,96.2,76.6,96.2z"/><path class="st3" d="M90.2,96.2c-0.9,0-1.6,0.7-1.6,1.6v2.2c0,0.9,0.7,1.6,1.6,1.6s1.6-0.7,1.6-1.6v-2.2     C91.8,96.9,91.1,96.2,90.2,96.2z"/></g><path class="st4" d="M71.5,99h23.8c1.4,0,2.7-1.2,2.7-2.7V60c0-1.4-1.2-2.7-2.7-2.7H71.5c-1.4,0-2.7,1.2-2.7,2.7v36.4    C68.8,97.8,70,99,71.5,99z"/><g class="st5"><path d="M74.2,93.4L74.2,93.4c-0.5,0-0.8-0.4-0.8-0.8V63.4c0-0.5,0.4-0.8,0.8-0.8l0,0c0.5,0,0.8,0.4,0.8,0.8v29.1     C75.1,93,74.7,93.4,74.2,93.4z"/><path d="M78.8,93.4L78.8,93.4c-0.5,0-0.8-0.4-0.8-0.8V63.4c0-0.5,0.4-0.8,0.8-0.8l0,0c0.5,0,0.8,0.4,0.8,0.8v29.1     C79.7,93,79.3,93.4,78.8,93.4z"/><path d="M83.4,93.4L83.4,93.4c-0.5,0-0.8-0.4-0.8-0.8V63.4c0-0.5,0.4-0.8,0.8-0.8l0,0c0.5,0,0.8,0.4,0.8,0.8v29.1     C84.3,93,83.9,93.4,83.4,93.4z"/><path d="M88,93.4L88,93.4c-0.5,0-0.8-0.4-0.8-0.8V63.4c0-0.5,0.4-0.8,0.8-0.8l0,0c0.5,0,0.8,0.4,0.8,0.8v29.1     C88.8,93,88.4,93.4,88,93.4z"/><path d="M92.5,93.4L92.5,93.4c-0.5,0-0.8-0.4-0.8-0.8V63.4c0-0.5,0.4-0.8,0.8-0.8l0,0c0.5,0,0.8,0.4,0.8,0.8v29.1     C93.4,93,93,93.4,92.5,93.4z"/></g><path class="st6" d="M86.3,41h-5.9c-1.6,0-2.9,1.3-2.9,2.9v2c0,0.3,0.3,0.7,0.7,0.7h1.4c0.3,0,0.7-0.3,0.7-0.7v-2    c0-0.2,0.1-0.3,0.3-0.3h5.9c0.2,0,0.3,0.1,0.3,0.3v2c0,0.3,0.3,0.7,0.7,0.7h1.4c0.3,0,0.7-0.3,0.7-0.7v-2C89.3,42.3,88,41,86.3,41    z"/></g><path class="st2" d="M22.4,48.9L22.4,48.9l-4.3-4.6c-0.4-0.4-0.3-1.1,0.2-1.3l2.4-1.2c0.3-0.2,0.7-0.1,0.9,0.1l1.5,1.2   c0.3,0.2,0.7,0.2,1,0.1l8-4.7c0.5-0.3,0.6-1,0.1-1.4l-7.5-6.2c-0.5-0.4-0.4-1.1,0.2-1.4l3.4-1.7c0.3-0.1,0.6-0.1,0.8,0l10.4,5.9   c0.3,0.2,0.6,0.1,0.9,0l6.6-4c1.4-0.7,3.1-0.9,4.6-0.5c0,0,0,0,0,0c2,0.6,2.2,3.4,0.4,4.4L22.4,48.9z"/><g><path class="st7" d="M40,79.6c0.8-1.4,0.4-3.2-1.1-4.1l1.2-2c0.7-1.2,2.2-1.6,3.3-0.9L64.8,85c1.2,0.7,1.6,2.2,0.9,3.3l-1.2,2    c-1.4-0.8-3.2-0.4-4.1,1.1c-0.8,1.4-0.4,3.2,1.1,4.1l-1.2,2.1c-0.7,1.2-2.2,1.6-3.3,0.9L35.6,86.1c-1.2-0.7-1.6-2.2-0.9-3.3l1.2-2    C37.3,81.5,39.1,81,40,79.6z"/><path class="st8" d="M35.9,80.7l-1.2,2c-0.7,1.2-0.3,2.6,0.9,3.3l6.7,3.9l0.4,0.2l0.4,0.2l0.2-0.4c0.1-0.2,0-0.4-0.1-0.5l-0.1-0.1    l0.7-1.1l0.1,0.1c0.2,0.1,0.4,0,0.5-0.1l0.5-0.9c0.1-0.2,0-0.4-0.1-0.5l-0.1-0.1l0.7-1.1l0.1,0.1c0.2,0.1,0.4,0,0.5-0.1l0.5-0.9    c0.1-0.2,0-0.4-0.1-0.5L46.4,84l0.7-1.1l0.1,0.1c0.2,0.1,0.4,0,0.5-0.1l0.5-0.9c0.1-0.2,0-0.4-0.1-0.5L48,81.3l0.7-1.1l0.1,0.1    c0.2,0.1,0.4,0,0.5-0.1l0.5-0.9c0.1-0.2,0-0.4-0.1-0.5l-0.1-0.1l0.7-1.1l0.1,0.1c0.2,0.1,0.4,0,0.5-0.1l0.2-0.4l-0.4-0.3l-0.4-0.2    l-6.8-3.9c-1.2-0.7-2.6-0.3-3.3,0.9l-1.3,2.1c1.4,0.8,1.9,2.7,1.1,4.1C39.2,81,37.3,81.5,35.9,80.7z"/><path class="st9" d="M43.8,74.8l3.5,2c0.2,0.1,0.3,0.4,0.2,0.6l-0.6,1c-0.1,0.2-0.4,0.3-0.6,0.2l-3.5-2c-0.2-0.1-0.3-0.4-0.2-0.6    l0.6-1C43.3,74.8,43.5,74.7,43.8,74.8z"/><g><path class="st7" d="M38.7,85.5l2.7,1.6c0.2,0.1,0.4,0,0.5-0.2l0,0c0.1-0.2,0.1-0.4-0.1-0.5l-2.7-1.6c-0.2-0.1-0.4,0-0.5,0.2l0,0     C38.5,85.2,38.5,85.4,38.7,85.5z"/><path class="st7" d="M39.4,84.3l2.7,1.6c0.2,0.1,0.4,0,0.5-0.2c0.1-0.2,0.1-0.4-0.1-0.5l-2.7-1.6c-0.2-0.1-0.4,0-0.5,0.2     C39.2,84,39.2,84.2,39.4,84.3z"/></g><rect class="st10" height="2.1" transform="matrix(0.5022 -0.8648 0.8648 0.5022 -54.5312 85.1991)" width="4.3" x="44.6" y="88.9"/><path class="st8" d="M60.2,85.1l2.8,1.6c0.2,0.1,0.4,0,0.5-0.1l0,0c0.1-0.2,0-0.4-0.1-0.5l-2.8-1.6c-0.2-0.1-0.4,0-0.5,0.1l0,0    C60,84.8,60,85,60.2,85.1z"/></g><g><path class="st2" d="M71.4,92.8l-15.5,2.8c-1.3,0.2-2.4-0.6-2.7-1.8l-4-22.6c-0.2-1.3,0.6-2.4,1.8-2.7l15.5-2.8    c1.3-0.2,2.4,0.6,2.7,1.8l4,22.6C73.5,91.4,72.6,92.6,71.4,92.8z"/><g><path class="st9" d="M65.2,75.1L65.2,75.1l-2.7,0.5c0.2,0.5,0.3,1.1,0.4,1.7c0.1,0.7,0.2,1.3,0.2,2l2.6-0.5l0,0     c0.1-0.7,0.1-1.3,0-2C65.7,76.1,65.5,75.6,65.2,75.1z"/><path class="st9" d="M58.4,78.1c-0.1-0.6-0.2-1.1-0.2-1.7l-2.6,0.5l-0.1,0c-0.1,0.6-0.1,1.2,0,1.7c0.1,0.7,0.4,1.3,0.7,1.8l0,0     l2.6-0.5C58.7,79.4,58.5,78.7,58.4,78.1z"/><path class="st9" d="M58.7,78c0.1,0.7,0.3,1.3,0.5,1.9l3.6-0.7c0-0.6-0.1-1.3-0.2-2c-0.1-0.6-0.2-1.1-0.4-1.7l-3.7,0.7     C58.6,76.9,58.6,77.4,58.7,78z"/><path class="st9" d="M65,74.8c0,0-0.1-0.1-0.1-0.1c-0.9-1.3-2.5-2.2-4.2-2.3c0.7,0.7,1.2,1.7,1.6,2.9L65,74.8z"/><path class="st9" d="M62.1,75.3c-0.4-1.2-1-2.2-1.7-2.9c-0.2,0-0.5,0-0.7,0.1c-0.2,0-0.5,0.1-0.7,0.1c-0.4,0.9-0.6,2.1-0.6,3.3     L62.1,75.3z"/><path class="st9" d="M58.7,72.8c-1.6,0.6-2.7,2-3.1,3.6c0,0,0,0.1,0,0.1l2.6-0.5C58.2,74.8,58.3,73.7,58.7,72.8z"/><path class="st9" d="M56.4,80.7c0.9,1.3,2.5,2.1,4.1,2.2c-0.6-0.7-1.1-1.6-1.5-2.7L56.4,80.7z"/><path class="st9" d="M59.3,80.2c0.4,1.1,1,2,1.6,2.7c0.2,0,0.5,0,0.7-0.1c0.2,0,0.5-0.1,0.6-0.1c0.3-0.9,0.6-1.9,0.6-3.1     L59.3,80.2z"/><path class="st9" d="M62.6,82.5c1.6-0.6,2.7-1.9,3.1-3.5l-2.6,0.5C63.1,80.7,63,81.7,62.6,82.5z"/></g><path class="st11" d="M67.1,89.1l-8.5,1.5c-0.3,0.1-0.6-0.1-0.7-0.4l0,0c-0.1-0.3,0.1-0.6,0.4-0.7l8.5-1.5    c0.3-0.1,0.6,0.1,0.7,0.4l0,0C67.6,88.7,67.4,89,67.1,89.1z"/></g></g></svg>